<svg width="32" height="31" viewBox="0 0 32 31" fill="none" xmlns="http://www.w3.org/2000/svg">
<circle cx="12.7942" cy="9.67779" r="2.60674" fill="white"/>
<circle cx="12.7344" cy="20.8838" r="2.60674" fill="white"/>
<circle cx="9.5584" cy="15.2509" r="2.60674" fill="white"/>
<circle cx="7.31032" cy="10.2472" r="1.1985" fill="white"/>
<circle cx="15.9995" cy="5.27345" r="1.1985" fill="white"/>
<circle cx="24.689" cy="10.2472" r="1.1985" fill="white"/>
<circle cx="24.689" cy="20.3145" r="1.1985" fill="white"/>
<circle cx="15.9995" cy="25.2885" r="1.1985" fill="white"/>
<circle cx="7.31032" cy="20.3145" r="1.1985" fill="white"/>
<circle cx="3.80493" cy="15.4906" r="0.988765" fill="white"/>
<circle cx="9.73779" cy="4.82397" r="0.988765" fill="white"/>
<circle cx="21.9023" cy="4.64416" r="0.988765" fill="white"/>
<circle cx="28.1951" cy="15.0712" r="0.988765" fill="white"/>
<circle cx="22.2622" cy="25.7379" r="0.988765" fill="white"/>
<circle cx="10.0977" cy="25.9177" r="0.988765" fill="white"/>
<circle cx="3.4462" cy="22.5618" r="0.808989" fill="white"/>
<circle cx="3.4462" cy="8.05984" r="0.808989" fill="white"/>
<circle cx="16.0304" cy="0.808989" r="0.808989" fill="white"/>
<circle cx="28.5541" cy="8.00015" r="0.808989" fill="white"/>
<circle cx="28.5541" cy="22.5019" r="0.808989" fill="white"/>
<circle cx="16.0304" cy="29.7528" r="0.808989" fill="white"/>
<circle cx="8.44959" cy="28.7042" r="0.599251" fill="white"/>
<circle cx="0.599251" cy="15.4607" r="0.599251" fill="white"/>
<circle cx="8.1493" cy="2.03748" r="0.599251" fill="white"/>
<circle cx="23.5509" cy="1.85767" r="0.599251" fill="white"/>
<circle cx="31.4013" cy="15.1011" r="0.599251" fill="white"/>
<circle cx="23.85" cy="28.5244" r="0.599251" fill="white"/>
<circle cx="22.441" cy="15.3108" r="2.60674" fill="white"/>
<circle cx="19.2657" cy="9.67779" r="2.60674" fill="white"/>
<circle cx="19.2061" cy="20.8838" r="2.60674" fill="white"/>
</svg>
