<svg width="1342" height="384" viewBox="0 0 1342 384" fill="none" xmlns="http://www.w3.org/2000/svg">
<path opacity="0.5" d="M0.5 26C0.5 20.7459 4.64823 16.5 9.88759 16.5H10.2693H10.6577H11.0528H11.4545H11.8629H12.2779H12.6994H13.1275H13.5622H14.0033H14.4508H14.9048H15.3652H15.832H16.3051H16.7846H17.2703H17.7623H18.2605H18.7649H19.2755H19.7922H20.3151H20.844H21.379H21.92H22.467H23.02H23.5789H24.1438H24.7145H25.2911H25.8735H26.4618H27.0558H27.6555H28.2609H28.8721H29.4889H30.1113H30.7393H31.3729H32.012H32.6567H33.3068H33.9624H34.6234H35.2898H35.9616H36.6387H37.3212H38.0089H38.7019H39.4001H40.1035H40.812H41.5257H42.2446H42.9685H43.6974H44.4314H45.1704H45.9143H46.6632H47.417H48.1757H48.9393H49.7076H50.4808H51.2587H52.0414H52.8288H53.6208H54.4175H55.2189H56.0248H56.8353H57.6503H58.4699H59.2939H60.1224H60.9553H61.7926H62.6343H63.4803H64.3306H65.1852H66.0441H66.9071H67.7744H68.6458H69.5214H70.4011H71.2848H72.1726H73.0645H73.9603H74.8601H75.7638H76.6715H77.583H78.4983H79.4175H80.3405H81.2673H82.1977H83.1319H84.0698H85.0113H85.9564H86.9052H87.8575H88.8133H89.7726H90.7354H91.7017H92.6714H93.6445H94.6209H95.6007H96.5838H97.5701H98.5597H99.5525H100.549H101.548H102.55H103.555H104.564H105.575H106.59H107.608H108.628H109.652H110.678H111.707H112.739H113.774H114.812H115.852H116.895H117.941H118.99H120.041H121.095H122.151H123.21H124.272H125.336H126.402H127.471H128.542H129.616H130.692H131.771H132.851H133.934H135.02H136.107H137.197H138.289H139.383H140.479H141.577H142.677H143.779H144.883H145.989H147.097H148.207H149.319H150.433H151.548H152.665H153.784H154.905H156.028H157.152H158.278H159.405H160.534H161.664H162.796H163.93H165.065H166.202H167.339H168.479H169.619H170.761H171.904H173.049H174.195H175.342H176.49H177.639H178.79H179.941H181.094H182.247H183.402H184.558H185.714H186.872H188.03H189.19H190.35H191.511H192.672H193.835H194.998H196.162H197.327H198.492H199.658H200.824H201.991H203.158H204.326H205.495H206.664H207.833H209.003H210.173H211.343H212.514H213.685H214.856H216.027H217.199H218.37H219.542H220.714H221.886H223.058H224.23H225.402H226.574H227.746H228.918H230.089H231.261H232.432H233.603H234.774H235.945H237.115H238.285H239.454H240.623H241.792H242.96H244.128H245.296H246.462H247.628H248.794H249.959H251.123H252.287H253.45H254.612H255.774H256.934H258.094H259.253H260.411H261.568H262.725H263.88H265.034H266.187H267.34H268.491H269.641H270.79H271.937H273.084H274.229H275.373H276.516H277.657H278.797H279.936H281.074H282.209H283.344H284.477H285.608H286.738H287.867H288.993H290.119H291.242H292.364H293.484H294.602H295.719H296.834H297.947H299.058H300.167H301.274H302.38H303.483H304.585H305.684H306.781H307.877H308.97H310.061H311.15H312.236H313.321H314.403H315.483H316.56H317.635H318.708H319.779H320.847H321.912H322.975H324.036H325.094H326.149H327.202H328.252H329.3H330.345H331.387H332.426H333.463H334.497H335.528H336.556H337.581H338.604H339.623H340.639H341.653H342.663H343.671H344.675H345.676H346.674H347.669H348.66H349.649H350.634H351.616H352.594H353.569H354.541H355.51H356.475H357.436H358.394H359.349H360.3H361.247H362.191H363.131H364.067H365H365.929H366.855H367.776H368.694H369.608H370.518H371.424H372.326H373.225H374.119H375.009H375.895H376.778H377.656H378.53H379.4H380.265H381.127H381.984H382.837H383.686H384.53H385.37H386.206H387.037H387.864H388.686H389.504H390.318H391.126H391.931H392.73H393.525H394.315H395.101H395.882H396.658H397.429H398.196H398.958H399.715H400.466H401.214H401.956H402.693H403.425H404.152H404.874H405.591H406.303H407.009H407.711H408.407H409.098H409.784H410.464H411.139H411.809H412.473H413.132H413.786H414.434H415.076H415.713H416.345H416.971H417.591H418.206H418.815H419.418H420.016H420.608H421.194H421.774H422.348H422.917H423.479H424.036H424.587H425.132H425.67H426.203H426.73H427.25H427.765H428.273H428.775H429.271H429.761H430.244H430.721H431.192H431.656H432.114H432.566H433.011H433.449H433.882H434.307H434.726H435.139H435.545H435.944H436.337H436.722H437.102H437.474H437.84H438.198H438.55H438.895H439.234H439.565H439.889H440.206H440.517H440.82H441.116H441.405H441.687H441.962H442.23H442.49H442.743H442.989H443.228H443.459H443.683H443.899H444.108H444.31H444.504H444.691H444.87H445.041H445.205H445.362H445.51H445.651H445.785H445.91H446.028H446.138H446.24H446.335H446.421H446.5C453.534 16.5 457.404 12.5629 461.216 8.68417C461.325 8.57295 461.435 8.46178 461.544 8.35076C465.473 4.35879 469.47 0.5 477 0.5H477.093H477.19H477.292H477.398H477.509H477.624H477.743H477.866H477.994H478.126H478.262H478.402H478.547H478.695H478.848H479.005H479.166H479.332H479.501H479.674H479.852H480.033H480.219H480.408H480.602H480.799H481.001H481.206H481.416H481.629H481.846H482.067H482.292H482.52H482.753H482.989H483.229H483.473H483.72H483.972H484.227H484.485H484.748H485.014H485.283H485.556H485.833H486.114H486.398H486.685H486.976H487.271H487.569H487.871H488.176H488.484H488.796H489.111H489.43H489.752H490.078H490.407H490.739H491.074H491.413H491.755H492.1H492.449H492.8H493.155H493.514H493.875H494.239H494.607H494.977H495.351H495.728H496.108H496.491H496.877H497.266H497.658H498.053H498.451H498.852H499.256H499.662H500.072H500.484H500.9H501.318H501.739H502.163H502.589H503.019H503.451H503.885H504.323H504.763H505.206H505.652H506.1H506.551H507.004H507.46H507.919H508.38H508.844H509.31H509.779H510.25H510.724H511.2H511.679H512.16H512.643H513.129H513.617H514.108H514.6H515.096H515.593H516.093H516.595H517.099H517.605H518.114H518.625H519.138H519.653H520.171H520.69H521.212H521.735H522.261H522.789H523.319H523.85H524.384H524.92H525.458H525.998H526.539H527.083H527.628H528.176H528.725H529.276H529.829H530.383H530.94H531.498H532.058H532.62H533.183H533.749H534.315H534.884H535.454H536.026H536.599H537.174H537.751H538.329H538.909H539.49H540.073H540.657H541.243H541.83H542.419H543.009H543.6H544.193H544.787H545.383H545.98H546.578H547.177H547.778H548.38H548.984H549.588H550.194H550.801H551.409H552.019H552.629H553.241H553.853H554.467H555.082H555.698H556.315H556.933H557.552H558.172H558.793H559.415H560.038H560.662H561.286H561.912H562.538H563.166H563.794H564.423H565.052H565.683H566.314H566.946H567.579H568.212H568.846H569.481H570.117H570.753H571.39H572.027H572.665H573.303H573.942H574.582H575.222H575.863H576.504H577.145H577.787H578.43H579.073H579.716H580.36H581.004H581.648H582.293H582.938H583.583H584.228H584.874H585.52H586.166H586.813H587.46H588.106H588.753H589.4H590.048H590.695H591.342H591.99H592.637H593.285H593.932H594.58H595.228H595.875H596.522H597.17H597.817H598.464H599.111H599.758H600.405H601.051H601.698H602.344H602.99H603.635H604.281H604.926H605.571H606.215H606.859H607.503H608.146H608.79H609.432H610.074H610.716H611.357H611.998H612.639H613.278H613.918H614.556H615.195H615.832H616.469H617.106H617.741H618.377H619.011H619.645H620.278H620.91H621.542H622.173H622.803H623.432H624.06H624.688H625.315H625.941H626.566H627.19H627.813H628.436H629.057H629.677H630.297H630.915H631.533H632.149H632.765H633.379H633.992H634.604H635.215H635.825H636.434H637.041H637.647H638.253H638.856H639.459H640.06H640.661H641.259H641.857H642.453H643.048H643.641H644.233H644.824H645.413H646.001H646.587H647.172H647.756H648.338H648.918H649.497H650.074H650.65H651.224H651.796H652.367H652.937H653.504H654.07H654.634H655.197H655.758H656.317H656.874H657.429H657.983H658.535H659.085H659.633H660.179H660.724H661.266H661.807H662.345H662.882H663.417H663.949H664.48H665.009H665.535H666.06H666.582H667.103H667.621H668.137H668.651H669.163H669.673H670.18H670.685H671.188H671.689H672.188H672.684H673.178H673.669H674.158H674.645H675.13H675.612H676.091H676.569H677.043H677.516H677.985H678.453H678.918H679.38H679.84H680.297H680.751H681.203H681.653H682.099H682.544H682.985H683.424H683.86H684.293H684.724H685.151H685.576H685.999H686.418H686.834H687.248H687.659H688.067H688.472H688.874H689.273H689.67H690.063H690.453H690.841H691.225H691.606H691.984H692.36H692.732H693.101H693.466H693.829H694.188H694.545H694.898H695.248H695.595H695.938H696.278H696.615H696.949H697.279H697.606H697.929H698.25H698.566H698.88H699.19H699.496H699.799H700.099H700.395H700.688H700.977H701.263H701.544H701.823H702.098H702.369H702.637H702.9H703.161H703.417H703.67H703.919H704.165H704.406H704.644H704.878H705.109H705.335H705.558H705.777H705.992H706.203H706.41H706.613H706.812H707.007H707.199H707.386H707.569H707.748H707.924H708.095H708.262H708.425H708.583H708.738H708.889H709.035H709.177H709.315H709.449H709.578H709.704H709.825H709.941H710.054H710.162H710.265H710.365H710.46H710.55H710.636H710.718H710.795H710.868H710.936H711C713.495 0.5 715.87 1.44992 718.244 2.92469C720.466 4.30545 722.646 6.11931 724.894 7.98994L725.368 8.38452C730.151 12.3602 735.289 16.5 741.5 16.5H741.571H741.652H741.745H741.85H741.965H742.091H742.229H742.377H742.536H742.706H742.888H743.079H743.282H743.495H743.719H743.954H744.2H744.455H744.722H744.999H745.286H745.584H745.892H746.211H746.539H746.878H747.227H747.587H747.956H748.336H748.725H749.125H749.535H749.954H750.383H750.823H751.271H751.73H752.199H752.677H753.164H753.662H754.168H754.685H755.211H755.746H756.29H756.844H757.407H757.98H758.562H759.153H759.753H760.362H760.98H761.607H762.243H762.888H763.542H764.205H764.876H765.557H766.246H766.943H767.65H768.365H769.088H769.82H770.561H771.31H772.067H772.833H773.607H774.389H775.18H775.978H776.785H777.6H778.423H779.254H780.093H780.94H781.795H782.658H783.528H784.406H785.292H786.186H787.088H787.997H788.913H789.837H790.769H791.708H792.654H793.608H794.569H795.538H796.513H797.496H798.486H799.483H800.487H801.499H802.517H803.542H804.574H805.613H806.659H807.711H808.771H809.837H810.909H811.989H813.075H814.167H815.266H816.371H817.483H818.602H819.726H820.857H821.994H823.137H824.287H825.442H826.604H827.772H828.946H830.125H831.311H832.503H833.7H834.903H836.112H837.327H838.547H839.773H841.005H842.242H843.484H844.733H845.986H847.245H848.509H849.779H851.054H852.334H853.619H854.91H856.205H857.506H858.811H860.122H861.438H862.758H864.083H865.413H866.748H868.088H869.432H870.781H872.135H873.493H874.856H876.223H877.594H878.97H880.351H881.735H883.124H884.518H885.915H887.317H888.722H890.132H891.546H892.964H894.385H895.811H897.241H898.674H900.111H901.552H902.997H904.445H905.897H907.352H908.811H910.274H911.74H913.209H914.682H916.158H917.637H919.12H920.606H922.095H923.587H925.082H926.581H928.082H929.586H931.094H932.604H934.117H935.632H937.151H938.672H940.196H941.722H943.251H944.783H946.317H947.854H949.393H950.935H952.478H954.025H955.573H957.124H958.676H960.231H961.788H963.348H964.909H966.472H968.037H969.604H971.173H972.743H974.316H975.89H977.466H979.043H980.622H982.203H983.785H985.369H986.954H988.54H990.128H991.718H993.308H994.9H996.493H998.087H999.682H1001.28H1002.88H1004.47H1006.07H1007.67H1009.27H1010.88H1012.48H1014.08H1015.69H1017.29H1018.9H1020.5H1022.11H1023.72H1025.32H1026.93H1028.54H1030.15H1031.76H1033.37H1034.98H1036.59H1038.19H1039.8H1041.41H1043.02H1044.63H1046.24H1047.85H1049.46H1051.07H1052.68H1054.29H1055.9H1057.51H1059.11H1060.72H1062.33H1063.93H1065.54H1067.14H1068.75H1070.35H1071.95H1073.56H1075.16H1076.76H1078.36H1079.96H1081.55H1083.15H1084.75H1086.34H1087.93H1089.53H1091.12H1092.71H1094.29H1095.88H1097.47H1099.05H1100.63H1102.22H1103.79H1105.37H1106.95H1108.52H1110.1H1111.67H1113.24H1114.8H1116.37H1117.93H1119.5H1121.06H1122.61H1124.17H1125.72H1127.27H1128.82H1130.37H1131.91H1133.46H1135H1136.53H1138.07H1139.6H1141.13H1142.66H1144.18H1145.7H1147.22H1148.74H1150.25H1151.77H1153.27H1154.78H1156.28H1157.78H1159.28H1160.77H1162.26H1163.75H1165.23H1166.71H1168.19H1169.66H1171.13H1172.6H1174.06H1175.52H1176.98H1178.43H1179.88H1181.33H1182.77H1184.21H1185.64H1187.07H1188.5H1189.92H1191.34H1192.76H1194.17H1195.57H1196.98H1198.38H1199.77H1201.16H1202.55H1203.93H1205.31H1206.68H1208.05H1209.41H1210.77H1212.13H1213.48H1214.82H1216.16H1217.5H1218.83H1220.16H1221.48H1222.8H1224.11H1225.42H1226.72H1228.01H1229.31H1230.59H1231.87H1233.15H1234.42H1235.69H1236.95H1238.2H1239.45H1240.7H1241.94H1243.17H1244.4H1245.62H1246.84H1248.05H1249.25H1250.45H1251.64H1252.83H1254.01H1255.19H1256.36H1257.52H1258.68H1259.83H1260.98H1262.11H1263.25H1264.37H1265.49H1266.61H1267.72H1268.82H1269.91H1271H1272.08H1273.15H1274.22H1275.28H1276.34H1277.39H1278.43H1279.46H1280.49H1281.51H1282.52H1283.53H1284.53H1285.52H1286.51H1287.48H1288.45H1289.42H1290.37H1291.32H1292.26H1293.2H1294.12H1295.04H1295.95H1296.86H1297.75H1298.64H1299.52H1300.39H1301.26H1302.12H1302.97H1303.81H1304.64H1305.47H1306.28H1307.09H1307.89H1308.69H1309.47H1310.25H1311.02H1311.78H1312.53H1313.27H1314.01H1314.73H1315.45H1316.16H1316.86H1317.55H1318.23H1318.91H1319.57H1320.23H1320.88H1321.52H1322.15H1322.77H1323.38H1323.98H1324.58H1325.16H1325.73H1326.3H1326.86H1327.4H1327.94H1328.47H1328.99H1329.5H1330H1330.49H1330.97H1331.44H1331.91H1332.36C1337.58 16.5 1341.5 20.7292 1341.5 26V374C1341.5 379.247 1337.25 383.5 1332 383.5H9.99996C4.75326 383.5 0.5 379.247 0.5 374V26Z" fill="url(#paint0_linear_86_730)" stroke="#6A7498"/>
<defs>
<linearGradient id="paint0_linear_86_730" x1="240.241" y1="45.1765" x2="240.241" y2="474.353" gradientUnits="userSpaceOnUse">
<stop stop-color="#6A7498" stop-opacity="0.6"/>
<stop offset="1" stop-color="#383D51"/>
</linearGradient>
</defs>
</svg>
