<svg width="1302" height="190" viewBox="0 0 1302 190" fill="none" xmlns="http://www.w3.org/2000/svg">
<g filter="url(#filter0_d_86_753)">
<path d="M10 15C10 9.47715 14.4772 5 20 5H273H302.5H1217.5H1249H1282C1287.52 5 1292 9.43595 1292 14.9588C1292 39.598 1292 102 1292 110C1292 120 1276 122 1276 133.5C1276 140.712 1276 155.201 1276 165.002C1276 170.525 1271.67 175 1266.14 175C1173.61 175 460.546 175 454 175C447 175 441 155 432.5 155C424 155 247 155 241.5 155C236 155 224.5 175 217.5 175C211.441 175 60.4027 175 19.91 175C14.3872 175 10 170.523 10 165V15Z" fill="#12121D"/>
</g>
<defs>
<filter id="filter0_d_86_753" x="0" y="0" width="1302" height="190" filterUnits="userSpaceOnUse" color-interpolation-filters="sRGB">
<feFlood flood-opacity="0" result="BackgroundImageFix"/>
<feColorMatrix in="SourceAlpha" type="matrix" values="0 0 0 0 0 0 0 0 0 0 0 0 0 0 0 0 0 0 127 0" result="hardAlpha"/>
<feOffset dy="5"/>
<feGaussianBlur stdDeviation="5"/>
<feComposite in2="hardAlpha" operator="out"/>
<feColorMatrix type="matrix" values="0 0 0 0 0.219608 0 0 0 0 0.239216 0 0 0 0 0.317647 0 0 0 0.1 0"/>
<feBlend mode="normal" in2="BackgroundImageFix" result="effect1_dropShadow_86_753"/>
<feBlend mode="normal" in="SourceGraphic" in2="effect1_dropShadow_86_753" result="shape"/>
</filter>
</defs>
</svg>
