<svg xmlns="http://www.w3.org/2000/svg" xmlns:xlink="http://www.w3.org/1999/xlink" version="1.1" width="519" height="387" xml:space="preserve" style="">
<desc>Created with Fabric.js 3.5.0</desc>
<defs>
</defs>



<g class="currentLayer" style=""><title>Layer 1</title><g id="909764" class="" opacity="1">
<g style="" vector-effect="non-scaling-stroke" stroke-width="0" id="svg_4" opacity="1">
		<g id="backgroundrect" stroke-width="0" class="" style="" opacity="1" transform="">
<rect style="stroke: none; stroke-width: 1; stroke-dasharray: none; stroke-linecap: butt; stroke-dashoffset: 0; stroke-linejoin: miter; stroke-miterlimit: 4; fill: none; fill-rule: nonzero;" x="-289.9117647409439" y="-357.3382339477521" rx="0" ry="0" width="100" height="100" transform="matrix(1,0,0,1,500,500) " stroke-width="0" id="svg_5" opacity="1"/>
</g>
		<g id="svg_2" stroke-width="0" opacity="1" transform="">
<path style="stroke: none; stroke-width: 1; stroke-dasharray: none; stroke-linecap: butt; stroke-dashoffset: 0; stroke-linejoin: miter; stroke-miterlimit: 4; fill: rgb(18, 18, 29); fill-rule: nonzero;" d="M519.5882352590561,375.9117647409457 V9.411764740945728 C519.5882352590561,3.8889147409457223 515.1112352590561,-0.5882352590542723 509.5882352590561,-0.5882352590542723 H10.588235259056091 C5.065435259056102,-0.5882352590542723 0.5882352590560914,3.888924740945754 0.5882352590560914,9.411764740945728 V375.9117647409457 C0.5882352590560914,381.43476474094575 5.030335259056102,385.9117647409457 10.553235259056095,385.9117647409457 H151.0882352590561 C158.0882352590561,385.9117647409457 169.5882352590561,365.9117647409457 175.0882352590561,365.9117647409457 H348.0882352590561 C356.5882352590561,365.9117647409457 362.5882352590561,385.9117647409457 369.5882352590561,385.9117647409457 H509.6252352590561 C515.148235259056,385.9117647409457 519.5882352590561,381.43476474094575 519.5882352590561,375.9117647409457 z" stroke-linecap="round" stroke-width="0" id="svg_6" opacity="1"/>
</g>
</g>
</g><g class="" opacity="1" id="svg_1">
<g style="" vector-effect="non-scaling-stroke" stroke-width="0" id="svg_12" opacity="1">
		<g id="backgroundrect" stroke-width="0" class="" style="" opacity="1" transform="">
<rect style="stroke: none; stroke-width: 1; stroke-dasharray: none; stroke-linecap: butt; stroke-dashoffset: 0; stroke-linejoin: miter; stroke-miterlimit: 4; fill: none; fill-rule: nonzero;" x="-289.9117647409439" y="-357.3382339477521" rx="0" ry="0" width="100" height="100" transform="matrix(1,0,0,1,500,500) " stroke-width="0" id="svg_5" opacity="1"/>
</g>
		<g id="svg_2" stroke-width="0" opacity="1" transform="">
<path style="stroke: none; stroke-width: 1; stroke-dasharray: none; stroke-linecap: butt; stroke-dashoffset: 0; stroke-linejoin: miter; stroke-miterlimit: 4; fill: rgb(18, 18, 29); fill-rule: nonzero;" d="M519.5882352590561,375.9117647409457 V9.411764740945728 C519.5882352590561,3.8889147409457223 515.1112352590561,-0.5882352590542723 509.5882352590561,-0.5882352590542723 H10.588235259056091 C5.065435259056102,-0.5882352590542723 0.5882352590560914,3.888924740945754 0.5882352590560914,9.411764740945728 V375.9117647409457 C0.5882352590560914,381.43476474094575 5.030335259056102,385.9117647409457 10.553235259056095,385.9117647409457 H151.0882352590561 C158.0882352590561,385.9117647409457 169.5882352590561,365.9117647409457 175.0882352590561,365.9117647409457 H348.0882352590561 C356.5882352590561,365.9117647409457 362.5882352590561,385.9117647409457 369.5882352590561,385.9117647409457 H509.6252352590561 C515.148235259056,385.9117647409457 519.5882352590561,381.43476474094575 519.5882352590561,375.9117647409457 z" stroke-linecap="round" stroke-width="0" id="svg_6" opacity="1"/>
</g>
</g>
</g><g class="" opacity="1" id="svg_14">
<g style="" vector-effect="non-scaling-stroke" stroke-width="0" id="svg_16" opacity="1">
		<g id="backgroundrect" stroke-width="0" opacity="1">
<rect style="stroke: none; stroke-width: 1; stroke-dasharray: none; stroke-linecap: butt; stroke-dashoffset: 0; stroke-linejoin: miter; stroke-miterlimit: 4; fill: none; fill-rule: nonzero;" x="-290.5" y="-356.7499998807889" rx="0" ry="0" width="100" height="100" transform="matrix(1,0,0,1,290.5,356.75) " stroke-width="0" id="svg_8" opacity="1"/>
</g>
		<g id="svg_2" stroke-width="0" opacity="1">
<linearGradient id="SVGID_7" gradientUnits="objectBoundingBox" gradientTransform="matrix(1 0 0 1 259.5 54.5)" x1="0.5" y1="0.642201840877533" x2="0.5" y2="2.3853211402893066" transform="translate(0,-0.5882353186607361) translate(0,-0.5882353186607361) translate(0,0.5882353186607361) translate(0,0.5882353186607361) translate(0,0.5882353186607361) translate(0,-0.5882352590560913) translate(0,0.5882353186607361) translate(-0.5882352590560913,0) translate(0,-0.5882352590560913) translate(0.5882352590560913,0) translate(0,-0.5882352590560913) translate(0,0.000008940698535297997) translate(-240.5,-306.1617736816406) translate(241.7646942138672,308.8235168457031) translate(-241.7646942138672,-308.8235168457031) translate(-0.5882352590560913,0) translate(0.5882353186607361,0) translate(0,0.5882353186607361) translate(0.5882353186607361,0) translate(-1.764705777168274,38.235294342041016) translate(1.1764705181121826,-38.82352828979492) matrix(1,0,0,1,500,361.25) " stroke-width="0">
<stop offset="0%" style="stop-color:rgb(56,61,81);stop-opacity: 0.9"/>
<stop offset="100%" style="stop-color:rgb(18,18,29);stop-opacity: 0.8"/>
</linearGradient>
<path style="stroke: none; stroke-width: 1; stroke-dasharray: none; stroke-linecap: butt; stroke-dashoffset: 0; stroke-linejoin: miter; stroke-miterlimit: 4; fill: url(&quot;#SVGID_7&quot;); fill-rule: nonzero;" d="M519.0000001192093,79.00000149011794 V10.000001490117938 C519.0000001192093,4.477201490117921 514.5230001192093,0.0000014901179384851915 509.0000001192093,0.0000014901179384851915 H10.00000011920929 C4.4772001192093,0.0000014901179384851915 1.1920928977282585e-7,4.477201490117921 1.1920928977282585e-7,10.000001490117938 V79.00000149011794 C1.1920928977282585e-7,84.52290149011793 4.4421001192093,89.00000149011794 9.965000119209293,89.00000149011794 H150.5000001192093 C157.5000001192093,89.00000149011794 169.0000001192093,109.00000149011794 174.5000001192093,109.00000149011794 H347.5000001192093 C356.0000001192093,109.00000149011794 362.0000001192093,89.00000149011794 369.0000001192093,89.00000149011794 H509.0370001192093 C514.5600001192092,89.00000149011794 519.0000001192093,84.52290149011793 519.0000001192093,79.00000149011794 z" stroke-linecap="round" stroke-width="0" id="svg_9" opacity="1"/>
</g>
		<g id="svg_3" stroke-width="0" opacity="1">
<path style="stroke: rgb(106, 116, 152); stroke-width: 1; stroke-dasharray: none; stroke-linecap: butt; stroke-dashoffset: 0; stroke-linejoin: miter; stroke-miterlimit: 4; fill: none; fill-rule: nonzero;" d="M518.5000001192093,10.000001490117938 V79.00000149011794 C518.5000001192093,84.24910149011794 514.2810001192092,88.50000149011794 509.0370001192093,88.50000149011794 H369.0000001192093 C367.01700011920934,88.50000149011794 365.19900011920936,89.90600149011794 363.5100001192093,91.79100149011794 C361.9710001192093,93.51000149011793 360.4410001192093,95.74100149011792 358.90100011920936,97.9870014901179 C358.7340001192092,98.23000149011796 358.5680001192093,98.47400149011793 358.40000011920927,98.71700149011792 C356.6780001192093,101.22200149011792 354.9370001192093,103.68400149011791 353.10700011920926,105.52200149011793 C351.27000011920927,107.36700149011796 349.4230001192093,108.50000149011794 347.5000001192093,108.50000149011794 H174.5000001192093 C173.9540001192093,108.50000149011794 173.27100011920925,108.24700149011795 172.44600011920932,107.71900149011793 C171.63100011920926,107.19800149011792 170.7300001192093,106.44100149011797 169.76000011920928,105.51400149011795 C168.05100011920928,103.88000149011793 166.1780001192093,101.76500149011792 164.23600011920928,99.57100149011796 C163.9710001192093,99.27100149011795 163.7040001192093,98.97000149011797 163.43600011920933,98.66800149011794 C161.22000011920932,96.17100149011793 158.9350001192093,93.64700149011793 156.75800011920933,91.74800149011793 C155.67000011920925,90.79800149011794 154.59500011920932,89.99200149011796 153.55600011920933,89.42100149011793 C152.52100011920925,88.85200149011791 151.49100011920927,88.50000149011794 150.5000001192093,88.50000149011794 H9.965000119209293 C4.72060011920928,88.50000149011794 0.5000001192092896,84.24900149011796 0.5000001192092896,79.00000149011794 V10.000001490117938 C0.5000001192092896,4.753301490117964 4.753300119209285,0.5000014901179384 10.00000011920929,0.5000014901179384 H509.0000001192093 C514.2470001192092,0.5000014901179384 518.5000001192093,4.753301490117964 518.5000001192093,10.000001490117938 z" stroke-linecap="round" stroke-width="0" id="svg_10" opacity="1"/>
</g>
</g>
</g><g id="210879" class="" opacity="1">
<g style="" vector-effect="non-scaling-stroke" stroke-width="0" id="svg_7" opacity="1">
		<g id="backgroundrect" stroke-width="0" opacity="1">
<rect style="stroke: none; stroke-width: 1; stroke-dasharray: none; stroke-linecap: butt; stroke-dashoffset: 0; stroke-linejoin: miter; stroke-miterlimit: 4; fill: none; fill-rule: nonzero;" x="-290.5" y="-356.7499998807889" rx="0" ry="0" width="100" height="100" transform="matrix(1,0,0,1,290.5,356.75) " stroke-width="0" id="svg_8" opacity="1"/>
</g>
		<g id="svg_2" stroke-width="0" opacity="1">
<linearGradient id="SVGID_7" gradientUnits="objectBoundingBox" gradientTransform="matrix(1 0 0 1 259.5 54.5)" x1="0.5" y1="0.642201840877533" x2="0.5" y2="2.3853211402893066" transform="translate(0,-0.5882353186607361) translate(0,-0.5882353186607361) translate(0,0.5882353186607361) translate(0,0.5882353186607361) translate(0,0.5882353186607361) translate(0,-0.5882352590560913) translate(0,0.5882353186607361) translate(-0.5882352590560913,0) translate(0,-0.5882352590560913) translate(0.5882352590560913,0) translate(0,-0.5882352590560913) translate(0,0.000008940698535297997) translate(-240.5,-306.1617736816406) translate(241.7646942138672,308.8235168457031) translate(-241.7646942138672,-308.8235168457031) translate(-0.5882352590560913,0) translate(0.5882353186607361,0) translate(0,0.5882353186607361) translate(0.5882353186607361,0) translate(-1.764705777168274,38.235294342041016) translate(1.1764705181121826,-38.82352828979492) matrix(1,0,0,1,500,361.25) " stroke-width="0">
<stop offset="0%" style="stop-color:rgb(56,61,81);stop-opacity: 0.9"/>
<stop offset="100%" style="stop-color:rgb(18,18,29);stop-opacity: 0.8"/>
</linearGradient>
<path style="stroke: none; stroke-width: 1; stroke-dasharray: none; stroke-linecap: butt; stroke-dashoffset: 0; stroke-linejoin: miter; stroke-miterlimit: 4; fill: url(&quot;#SVGID_7&quot;); fill-rule: nonzero;" d="M519.0000001192093,79.00000149011794 V10.000001490117938 C519.0000001192093,4.477201490117921 514.5230001192093,0.0000014901179384851915 509.0000001192093,0.0000014901179384851915 H10.00000011920929 C4.4772001192093,0.0000014901179384851915 1.1920928977282585e-7,4.477201490117921 1.1920928977282585e-7,10.000001490117938 V79.00000149011794 C1.1920928977282585e-7,84.52290149011793 4.4421001192093,89.00000149011794 9.965000119209293,89.00000149011794 H150.5000001192093 C157.5000001192093,89.00000149011794 169.0000001192093,109.00000149011794 174.5000001192093,109.00000149011794 H347.5000001192093 C356.0000001192093,109.00000149011794 362.0000001192093,89.00000149011794 369.0000001192093,89.00000149011794 H509.0370001192093 C514.5600001192092,89.00000149011794 519.0000001192093,84.52290149011793 519.0000001192093,79.00000149011794 z" stroke-linecap="round" stroke-width="0" id="svg_9" opacity="1"/>
</g>
		<g id="svg_3" stroke-width="0" opacity="1">
<path style="stroke: rgb(106, 116, 152); stroke-width: 1; stroke-dasharray: none; stroke-linecap: butt; stroke-dashoffset: 0; stroke-linejoin: miter; stroke-miterlimit: 4; fill: none; fill-rule: nonzero;" d="M518.5000001192093,10.000001490117938 V79.00000149011794 C518.5000001192093,84.24910149011794 514.2810001192092,88.50000149011794 509.0370001192093,88.50000149011794 H369.0000001192093 C367.01700011920934,88.50000149011794 365.19900011920936,89.90600149011794 363.5100001192093,91.79100149011794 C361.9710001192093,93.51000149011793 360.4410001192093,95.74100149011792 358.90100011920936,97.9870014901179 C358.7340001192092,98.23000149011796 358.5680001192093,98.47400149011793 358.40000011920927,98.71700149011792 C356.6780001192093,101.22200149011792 354.9370001192093,103.68400149011791 353.10700011920926,105.52200149011793 C351.27000011920927,107.36700149011796 349.4230001192093,108.50000149011794 347.5000001192093,108.50000149011794 H174.5000001192093 C173.9540001192093,108.50000149011794 173.27100011920925,108.24700149011795 172.44600011920932,107.71900149011793 C171.63100011920926,107.19800149011792 170.7300001192093,106.44100149011797 169.76000011920928,105.51400149011795 C168.05100011920928,103.88000149011793 166.1780001192093,101.76500149011792 164.23600011920928,99.57100149011796 C163.9710001192093,99.27100149011795 163.7040001192093,98.97000149011797 163.43600011920933,98.66800149011794 C161.22000011920932,96.17100149011793 158.9350001192093,93.64700149011793 156.75800011920933,91.74800149011793 C155.67000011920925,90.79800149011794 154.59500011920932,89.99200149011796 153.55600011920933,89.42100149011793 C152.52100011920925,88.85200149011791 151.49100011920927,88.50000149011794 150.5000001192093,88.50000149011794 H9.965000119209293 C4.72060011920928,88.50000149011794 0.5000001192092896,84.24900149011796 0.5000001192092896,79.00000149011794 V10.000001490117938 C0.5000001192092896,4.753301490117964 4.753300119209285,0.5000014901179384 10.00000011920929,0.5000014901179384 H509.0000001192093 C514.2470001192092,0.5000014901179384 518.5000001192093,4.753301490117964 518.5000001192093,10.000001490117938 z" stroke-linecap="round" stroke-width="0" id="svg_10" opacity="1"/>
</g>
</g>
</g></g></svg>