<svg xmlns="http://www.w3.org/2000/svg" fill="none" viewBox="0 0 1282 225">
<path d="M221.362 9.07765C216.686 14.3478 211.711 19.9557 208 19.9557H10C4.47715 19.9557 0 24.4229 0 29.9335L0.0899601 215.022C0.0899601 220.533 4.47715 225 10 225C10 225 1250.62 224.998 1256.14 224.998C1261.67 224.998 1266 220.533 1266 215.022V148.171C1266 142.233 1270.28 138.834 1274.42 135.553C1278.27 132.494 1282 129.538 1282 124.723V29.8924C1282 24.3818 1277.52 19.9557 1272 19.9557H444.5C441.17 19.9557 438.066 15.4389 434.811 10.7032C431.225 5.48458 427.456 0 423 0H232C229.416 0 225.506 4.40616 221.362 9.07765Z" fill="#12121D"/>
</svg>