<svg width="15" height="15" viewBox="0 0 15 15" fill="none" xmlns="http://www.w3.org/2000/svg">
<path d="M14.9458 0.415483C15.0665 0.706676 15.0168 0.955256 14.7967 1.16122L9.54456 6.41335V14.3182C9.54456 14.6165 9.40607 14.826 9.12908 14.9467C9.03675 14.9822 8.94797 15 8.86275 15C8.67099 15 8.51118 14.9325 8.38334 14.7976L5.65609 12.0703C5.52114 11.9354 5.45367 11.7756 5.45367 11.5909V6.41335L0.20157 1.16122C-0.018599 0.955256 -0.0683147 0.706676 0.0524233 0.415483C0.173161 0.138494 0.382677 0 0.680971 0H14.3173C14.6156 0 14.8251 0.138494 14.9458 0.415483Z" fill="#28EBDD"/>
</svg>
