<svg width="43" height="52" viewBox="0 0 43 52" fill="none" xmlns="http://www.w3.org/2000/svg">
<g filter="url(#filter0_d_462_188)">
<path d="M36.0101 34.6344C33.3172 29.8659 30.542 25.1445 27.7902 20.4114C27.1435 19.3046 26.238 18.4216 25.0973 17.8093C22.0987 16.161 18.2769 16.9734 16.1131 19.7285C15.8309 20.0817 15.6898 20.1995 15.4193 19.7167C14.8784 18.7277 14.2786 17.7622 13.6907 16.7968C13.5848 16.6084 13.5025 16.4436 13.5378 16.2316C13.6084 16.0432 13.6672 15.8431 13.7024 15.6311C13.7142 15.5958 13.7142 15.5605 13.726 15.5252C13.726 15.4899 13.7377 15.4663 13.7377 15.431C13.7495 15.3839 13.7495 15.325 13.7612 15.2779C13.7612 15.2544 13.7612 15.2308 13.773 15.1955C13.773 15.1366 13.7847 15.0895 13.7847 15.0307C13.7847 14.9718 13.7847 14.9247 13.7847 14.8658C13.7847 14.4773 13.726 14.1005 13.6201 13.7473C13.5848 13.347 13.7495 13.0291 14.1611 12.7818C15.1253 12.1814 16.0661 11.5573 16.9951 10.9215C17.3714 10.6625 17.7124 10.6154 18.124 10.8156C18.4768 11.0275 18.8883 11.1688 19.3352 11.1806C19.3705 11.1806 19.394 11.1806 19.4293 11.1806C19.441 11.1806 19.4528 11.1806 19.4646 11.1806C19.4763 11.1806 19.4763 11.1806 19.4881 11.1806C19.7233 11.1806 19.9585 11.1452 20.1936 11.0746C20.6287 10.9451 21.0168 10.7096 21.3225 10.3917C21.6401 10.1445 21.9693 10.0974 22.3574 10.2504C23.1923 10.5683 24.0272 10.8744 24.8739 11.157C25.2855 11.2865 25.5559 11.5102 25.7323 11.8635C25.897 12.6876 26.6261 13.2999 27.4963 13.2999C28.4958 13.2999 29.3072 12.4875 29.3072 11.4867C29.3072 10.639 28.731 9.93252 27.9549 9.73236C27.9431 9.73236 27.9196 9.72059 27.9078 9.72059C27.8843 9.70881 27.849 9.70881 27.8255 9.70881C27.7902 9.69704 27.7432 9.69704 27.7079 9.68527C27.6962 9.68527 27.6726 9.68527 27.6609 9.68527C27.6138 9.68527 27.5786 9.67349 27.5315 9.67349C27.5198 9.67349 27.508 9.67349 27.4963 9.67349C27.4727 9.67349 27.4492 9.67349 27.4257 9.67349C27.4139 9.67349 27.4022 9.67349 27.3904 9.67349C27.0259 9.69704 26.6966 9.82655 26.4261 10.0267C25.9793 10.2151 25.5795 10.1915 25.0973 9.97962C24.38 9.67349 23.6392 9.42624 22.8866 9.17898C22.3574 9.01415 22.0869 8.70802 21.9928 8.1311C21.9811 8.07223 21.9693 8.01336 21.9576 7.95449C21.7106 6.8595 20.8404 6.12951 19.7585 6.02355C19.735 6.02355 19.7115 6.02355 19.688 6.01177C19.6292 6.01177 19.5822 6 19.5234 6C19.4998 6 19.4763 6 19.4528 6C19.441 6 19.4175 6 19.4058 6C19.347 6 19.2882 6 19.2176 6.01177C19.2059 6.01177 19.1941 6.01177 19.1706 6.01177C19.1353 6.01177 19.1 6.01177 19.0647 6.02355C18.0534 6.15306 17.2538 6.8595 16.9833 7.8132C16.9128 8.06045 16.8657 8.30771 16.8657 8.57851C16.8657 8.70802 16.8775 8.82576 16.901 8.95528C16.8775 9.41446 16.6541 9.72059 16.2542 9.96784C15.4663 10.4624 14.6549 10.9451 13.9141 11.5102C13.3732 11.9223 12.9146 12.0518 12.3736 11.8281C11.7033 11.263 10.8331 10.9215 9.88061 10.9215C7.91679 10.9215 6.29399 12.3815 6.02352 14.2771C6.02352 14.2889 6.02352 14.3007 6.02352 14.3125C6.01176 14.3831 6.01176 14.4655 6 14.5362C6 14.5597 6 14.5715 6 14.595C6 14.7245 6 14.807 6 14.8776C6 14.8894 6 14.8894 6 14.9012C6 14.9129 6 14.9365 6 14.9483C6 15.0307 6 15.1131 6.01176 15.1955C6.01176 15.2073 6.01176 15.2073 6.01176 15.2191C6.04704 15.584 6.12935 15.9373 6.24695 16.2669C6.63501 17.3502 7.38761 18.1037 8.44596 18.504C8.66939 18.5864 8.89282 18.6571 9.13977 18.7042C9.50431 18.7866 9.69246 18.9514 9.8571 19.234C10.8214 20.8824 11.7856 22.5425 12.7852 24.1673C13.0557 24.6029 13.0321 24.9091 12.7734 25.3447C11.0095 28.3589 9.26912 31.3965 7.51697 34.4342C6.69381 35.8589 6.3175 37.3895 6.44686 39.0497C6.68205 42.1815 8.91634 44.9249 11.9738 45.7608C14.9019 46.5732 18.806 45.2428 20.4641 42.8762C21.1109 41.9461 21.0403 40.7451 20.276 40.0151C19.4646 39.2263 18.2533 39.1203 17.3479 39.7679C16.7952 40.1564 16.2542 40.5685 15.7015 40.9453C14.9842 41.4398 14.1963 41.6164 13.3496 41.3809C11.327 40.8275 10.4215 38.8495 11.3976 36.9539C12.1619 35.4704 13.0557 34.0457 13.8906 32.5975C14.5138 31.5143 15.1488 30.4193 15.8074 29.289C16.5129 30.4782 17.1832 31.5967 17.8535 32.7152C19.7468 35.8942 21.546 39.1203 23.5451 42.2286C26.0498 46.1141 31.1182 46.7616 34.646 43.771C37.1155 41.6635 37.7622 37.7427 36.0101 34.6344ZM30.6595 40.8746C29.4954 41.2867 28.2959 41.0041 27.6021 40.0504C27.0847 39.3558 26.6731 38.5787 26.2262 37.8369C23.7215 33.6101 21.2167 29.3832 18.7002 25.1681C18.512 24.8502 18.465 24.6029 18.6767 24.285C18.9824 23.8376 19.2176 23.3431 19.4998 22.8722C20.5817 21.0472 22.7807 21.0001 23.8743 22.8368C25.262 25.1445 26.6025 27.4876 27.9549 29.8188C29.2249 32.0206 30.4832 34.2341 31.7532 36.4358C32.106 37.0481 32.3999 37.6721 32.4117 38.3903C32.447 39.5088 31.7414 40.4979 30.6595 40.8746Z" fill="#34BCFF"/>
</g>
<defs>
<filter id="filter0_d_462_188" x="0" y="0" width="43" height="52" filterUnits="userSpaceOnUse" color-interpolation-filters="sRGB">
<feFlood flood-opacity="0" result="BackgroundImageFix"/>
<feColorMatrix in="SourceAlpha" type="matrix" values="0 0 0 0 0 0 0 0 0 0 0 0 0 0 0 0 0 0 127 0" result="hardAlpha"/>
<feOffset/>
<feGaussianBlur stdDeviation="3"/>
<feComposite in2="hardAlpha" operator="out"/>
<feColorMatrix type="matrix" values="0 0 0 0 0.203922 0 0 0 0 0.737255 0 0 0 0 1 0 0 0 1 0"/>
<feBlend mode="normal" in2="BackgroundImageFix" result="effect1_dropShadow_462_188"/>
<feBlend mode="normal" in="SourceGraphic" in2="effect1_dropShadow_462_188" result="shape"/>
</filter>
</defs>
</svg>
