<svg width="28" height="27" viewBox="0 0 28 27" fill="none" xmlns="http://www.w3.org/2000/svg">
<circle cx="11.2148" cy="8.41118" r="2.26557" fill="#192E86"/>
<circle cx="11.1601" cy="18.1505" r="2.26557" fill="#192E86"/>
<circle cx="8.40229" cy="13.2549" r="2.26557" fill="#192E86"/>
<circle cx="6.44789" cy="8.90604" r="1.04164" fill="#192E86"/>
<circle cx="13.9987" cy="4.58321" r="1.04164" fill="#192E86"/>
<circle cx="21.5495" cy="8.90604" r="1.04164" fill="#192E86"/>
<circle cx="21.5495" cy="17.6557" r="1.04164" fill="#192E86"/>
<circle cx="13.9987" cy="21.9786" r="1.04164" fill="#192E86"/>
<circle cx="6.44789" cy="17.6557" r="1.04164" fill="#192E86"/>
<circle cx="3.40232" cy="13.4631" r="0.859353" fill="#192E86"/>
<circle cx="8.55857" cy="4.19261" r="0.859353" fill="#192E86"/>
<circle cx="19.1289" cy="4.03632" r="0.859353" fill="#192E86"/>
<circle cx="24.5976" cy="13.0986" r="0.859353" fill="#192E86"/>
<circle cx="19.4414" cy="22.3693" r="0.859353" fill="#192E86"/>
<circle cx="8.87107" cy="22.5255" r="0.859353" fill="#192E86"/>
<circle cx="3.08983" cy="19.6089" r="0.703107" fill="#192E86"/>
<circle cx="3.08983" cy="7.00499" r="0.703107" fill="#192E86"/>
<circle cx="14.0273" cy="0.703107" r="0.703107" fill="#192E86"/>
<circle cx="24.9101" cy="6.95305" r="0.703107" fill="#192E86"/>
<circle cx="24.9101" cy="19.5568" r="0.703107" fill="#192E86"/>
<circle cx="14.0273" cy="25.8587" r="0.703107" fill="#192E86"/>
<circle cx="7.43879" cy="24.9473" r="0.52082" fill="#192E86"/>
<circle cx="0.61457" cy="13.4371" r="0.52082" fill="#192E86"/>
<circle cx="7.17707" cy="1.77079" r="0.52082" fill="#192E86"/>
<circle cx="20.5638" cy="1.61452" r="0.52082" fill="#192E86"/>
<circle cx="27.3841" cy="13.1246" r="0.52082" fill="#192E86"/>
<circle cx="20.8216" cy="24.7911" r="0.52082" fill="#192E86"/>
<circle cx="19.5976" cy="13.3069" r="2.26557" fill="#192E86"/>
<circle cx="16.8398" cy="8.41118" r="2.26557" fill="#192E86"/>
<circle cx="16.7851" cy="18.1505" r="2.26557" fill="#192E86"/>
</svg>
